<?xml version="1.0" encoding="utf-8"?>
<!-- Generator: Adobe Illustrator 19.2.0, SVG Export Plug-In . SVG Version: 6.00 Build 0)  -->
<svg version="1.1" id="Layer_1" xmlns="http://www.w3.org/2000/svg" xmlns:xlink="http://www.w3.org/1999/xlink" x="0px" y="0px"
	 viewBox="0 0 272.4 272.4" style="enable-background:new 0 0 272.4 272.4;" xml:space="preserve">
<style type="text/css">
	.st0{fill:#1A8E66;}
	.st1{fill:#FFFFFF;}
</style>
<g>
	<polygon class="st0" points="248.9,0 23.5,0 0,0 0,23.5 0,248.9 0,272.4 23.5,272.4 248.9,272.4 272.4,272.4 272.4,248.9 
		272.4,23.5 272.4,0 	"/>
	<path class="st1" d="M113.1,83.2c2.5-3,4.9-5.1,8.5-5.1c4.8,0,9.5,4.4,9.5,8.5c0,2.8-0.8,4.6-3.1,7.2c-8.2,9.5-21.4,23.2-27.9,30.1
		c-1.8,2-4.1,4.6-5.7,6.4c4.4,5.1,11.3,13.6,23.5,28.1c3.9,4.6,7.9,9.2,13.8,15.9c2.6,2.6,3.8,5.1,3.8,7.9c0,5.3-5.1,9.2-10,9.2
		c-3.3,0-5.4-1.3-7.7-4.3c-1.8-2.1-3.1-3.9-4.9-6.2c-10.4-13.5-20.2-26.3-30.6-39.5c-3.9,4.4-9,9.2-12.5,13l0.2,28.9
		c0,5.3-3.8,7.7-9.2,7.9c-5.4,0-9.4-2.8-9.4-8.1c0-3.5,0.2-7.1,0.2-12.5c0-30.9,0.3-52.1,0.3-83.8c0-6.2,4.1-8.9,9.4-8.9
		c5.7,0,9,2.8,9,8.2c0,15.9-0.2,31.7-0.2,46.4C83,118.4,100,99.2,113.1,83.2"/>
	<path class="st1" d="M146.1,134.4c0.2-4.8,3.3-6.7,8.9-6.7h21.2V102c0-5.1,3.8-7.4,7.7-7.4c4.9,0,7.4,2.5,7.4,8.4v25
		c7.1,0,17.9-0.2,22.4-0.2c5.3,0,7.4,3.3,7.4,7.4c0,4.8-2.3,7.4-8.1,7.6c-3.4,0.2-15.3,0-21.9,0c-0.2,8.2,0.2,21.7,0.2,25.5
		c0,5.4-3.8,6.9-8.2,6.7c-4.9,0-6.9-3.5-6.9-7.9v-24.3c-7.7,0-19.6,0.2-22.8,0.2C147.9,143,145.8,139,146.1,134.4"/>
</g>
</svg>
